Raleway-Italic.ufo
<glyph name="exclam" format="2">
  <advance width="258"/>
  <unicode hex="0021"/>
  <outline>
    <contour>
      <point x="72" y="240" type="line"/>
      <point x="160" y="240" type="line"/>
      <point x="261" y="717" type="line"/>
      <point x="173" y="717" type="line"/>
    </contour>
    <contour>
      <point x="21" y="0" type="line"/>
      <point x="109" y="0" type="line"/>
      <point x="135" y="124" type="line"/>
      <point x="47" y="124" type="line"/>
    </contour>
  </outline>
</glyph>
<glyph name="comma" format="2">
  <advance width="208"/>
  <unicode hex="002C"/>
  <outline>
    <contour>
      <point x="-7" y="-81" type="line"/>
      <point x="36" y="-81" type="line"/>
      <point x="84" y="8" type="line"/>
      <point x="106" y="112" type="line"/>
      <point x="24" y="112" type="line"/>
      <point x="2" y="8" type="line"/>
      <point x="32" y="8" type="line"/>
    </contour>
  </outline>
</glyph>
<glyph name="period" format="2">
  <advance width="200"/>
  <unicode hex="002E"/>
  <outline>
    <contour>
      <point x="0" y="0" type="line"/>
      <point x="74" y="0" type="line"/>
      <point x="98" y="112" type="line"/>
      <point x="24" y="112" type="line"/>
    </contour>
  </outline>
</glyph>
<glyph name="slash" format="2">
  <advance width="628"/>
  <unicode hex="002F"/>
  <outline>
    <contour>
      <point x="680" y="710" type="line"/>
      <point x="582" y="710" type="line"/>
      <point x="-26" y="0" type="line"/>
      <point x="72" y="0" type="line"/>
    </contour>
  </outline>
</glyph>
<glyph name="three" format="2">
  <advance width="519"/>
  <unicode hex="0033"/>
  <outline>
    <contour>
      <point x="56" y="-147"/>
      <point x="152" y="-147" type="curve" smooth="yes"/>
      <point x="311" y="-147"/>
      <point x="430" y="-45"/>
      <point x="430" y="98" type="curve" smooth="yes"/>
      <point x="430" y="170"/>
      <point x="393" y="224"/>
      <point x="330" y="236" type="curve"/>
      <point x="420" y="251"/>
      <point x="488" y="340"/>
      <point x="488" y="430" type="curve" smooth="yes"/>
      <point x="488" y="518"/>
      <point x="423" y="576"/>
      <point x="317" y="576" type="curve" smooth="yes"/>
      <point x="222" y="576"/>
      <point x="127" y="531"/>
      <point x="79" y="464" type="curve"/>
      <point x="121" y="408" type="line"/>
      <point x="163" y="464"/>
      <point x="223" y="497"/>
      <point x="291" y="497" type="curve" smooth="yes"/>
      <point x="352" y="497"/>
      <point x="393" y="469"/>
      <point x="393" y="414" type="curve" smooth="yes"/>
      <point x="393" y="335"/>
      <point x="328" y="270"/>
      <point x="224" y="270" type="curve" smooth="yes"/>
      <point x="197" y="270" type="line"/>
      <point x="181" y="196" type="line"/>
      <point x="206" y="196" type="line" smooth="yes"/>
      <point x="293" y="196"/>
      <point x="337" y="153"/>
      <point x="337" y="87" type="curve" smooth="yes"/>
      <point x="337" y="-11"/>
      <point x="271" y="-67"/>
      <point x="168" y="-67" type="curve" smooth="yes"/>
      <point x="90" y="-67"/>
      <point x="50" y="-33"/>
      <point x="32" y="21" type="curve"/>
      <point x="-38" y="-38" type="line"/>
      <point x="-12" y="-107"/>
    </contour>
  </outline>
</glyph>
<glyph name="five" format="2">
  <advance width="528"/>
  <unicode hex="0035"/>
  <outline>
    <contour>
      <point x="60" y="-149"/>
      <point x="156" y="-149" type="curve" smooth="yes"/>
      <point x="309" y="-149"/>
      <point x="451" y="-31"/>
      <point x="451" y="132" type="curve" smooth="yes"/>
      <point x="451" y="240"/>
      <point x="380" y="314"/>
      <point x="273" y="314" type="curve" smooth="yes"/>
      <point x="222" y="314"/>
      <point x="176" y="295"/>
      <point x="143" y="264" type="curve"/>
      <point x="230" y="490" type="line"/>
      <point x="494" y="490" type="line"/>
      <point x="511" y="571" type="line"/>
      <point x="183" y="571" type="line"/>
      <point x="181" y="571"/>
      <point x="33" y="193"/>
      <point x="20" y="164" type="curve"/>
      <point x="99" y="164" type="line"/>
      <point x="138" y="211"/>
      <point x="193" y="237"/>
      <point x="246" y="237" type="curve" smooth="yes"/>
      <point x="314" y="237"/>
      <point x="359" y="188"/>
      <point x="359" y="116" type="curve" smooth="yes"/>
      <point x="359" y="10"/>
      <point x="271" y="-71"/>
      <point x="173" y="-71" type="curve" smooth="yes"/>
      <point x="106" y="-71"/>
      <point x="53" y="-30"/>
      <point x="31" y="31" type="curve"/>
      <point x="-34" y="-17" type="line"/>
      <point x="-12" y="-97"/>
    </contour>
  </outline>
</glyph>
<glyph name="C" format="2">
  <advance width="653"/>
  <unicode hex="0043"/>
  <anchor x="272" y="0" name="bottom"/>
  <anchor x="422" y="710" name="top"/>
  <outline>
    <contour>
      <point x="131" y="-6"/>
      <point x="302" y="-6" type="curve" smooth="yes"/>
      <point x="404" y="-6"/>
      <point x="526" y="46"/>
      <point x="597" y="159" type="curve"/>
      <point x="531" y="200" type="line"/>
      <point x="475" y="114"/>
      <point x="390" y="75"/>
      <point x="318" y="75" type="curve" smooth="yes"/>
      <point x="201" y="75"/>
      <point x="136" y="177"/>
      <point x="136" y="300" type="curve" smooth="yes"/>
      <point x="136" y="450"/>
      <point x="231" y="633"/>
      <point x="430" y="633" type="curve" smooth="yes"/>
      <point x="501" y="633"/>
      <point x="568" y="610"/>
      <point x="595" y="516" type="curve"/>
      <point x="670" y="559" type="line"/>
      <point x="646" y="647"/>
      <point x="573" y="714"/>
      <point x="442" y="714" type="curve" smooth="yes"/>
      <point x="201" y="714"/>
      <point x="45" y="489"/>
      <point x="45" y="289" type="curve" smooth="yes"/>
      <point x="45" y="141"/>
    </contour>
  </outline>
</glyph>
<glyph name="E" format="2">
  <advance width="580"/>
  <unicode hex="0045"/>
  <anchor x="235" y="0" name="bottom"/>
  <anchor x="479" y="0" name="ogonek"/>
  <anchor x="385" y="710" name="top"/>
  <anchor x="115" y="710" name="topleft"/>
  <outline>
    <contour>
      <point x="171" y="710" type="line"/>
      <point x="20" y="0" type="line"/>
      <point x="479" y="0" type="line"/>
      <point x="496" y="80" type="line"/>
      <point x="127" y="80" type="line"/>
      <point x="179" y="325" type="line"/>
      <point x="492" y="325" type="line"/>
      <point x="508" y="400" type="line"/>
      <point x="195" y="400" type="line"/>
      <point x="244" y="630" type="line"/>
      <point x="604" y="630" type="line"/>
      <point x="621" y="710" type="line"/>
    </contour>
  </outline>
</glyph>
<glyph name="I" format="2">
  <advance width="258"/>
  <unicode hex="0049"/>
  <anchor x="65" y="0" name="bottom"/>
  <anchor x="110" y="0" name="ogonek"/>
  <anchor x="216" y="710" name="top"/>
  <outline>
    <contour>
      <point x="171" y="709" type="line"/>
      <point x="20" y="0" type="line"/>
      <point x="110" y="0" type="line"/>
      <point x="261" y="709" type="line"/>
    </contour>
  </outline>
</glyph>
<glyph name="W" format="2">
  <advance width="1002"/>
  <unicode hex="0057"/>
  <anchor x="582" y="708" name="top"/>
  <outline>
    <contour>
      <point x="93" y="710" type="line"/>
      <point x="223" y="0" type="line"/>
      <point x="300" y="0" type="line"/>
      <point x="505" y="335" type="line"/>
      <point x="566" y="0" type="line"/>
      <point x="643" y="0" type="line"/>
      <point x="1076" y="710" type="line"/>
      <point x="977" y="710" type="line"/>
      <point x="624" y="104" type="line"/>
      <point x="574" y="397" type="line"/>
      <point x="756" y="706" type="line"/>
      <point x="671" y="706" type="line"/>
      <point x="530" y="459" type="line"/>
      <point x="495" y="706" type="line"/>
      <point x="410" y="706" type="line"/>
      <point x="461" y="397" type="line"/>
      <point x="286" y="104" type="line"/>
      <point x="190" y="710" type="line"/>
    </contour>
  </outline>
</glyph>
<glyph name="backslash" format="2">
  <advance width="556"/>
  <unicode hex="005C"/>
  <outline>
    <contour>
      <point x="207" y="710" type="line"/>
      <point x="108" y="710" type="line"/>
      <point x="371" y="0" type="line"/>
      <point x="469" y="0" type="line"/>
    </contour>
  </outline>
</glyph>
<glyph name="v" format="2">
  <advance width="508"/>
  <unicode hex="0076"/>
  <outline>
    <contour>
      <point x="56" y="522" type="line"/>
      <point x="139" y="0" type="line"/>
      <point x="234" y="0" type="line"/>
      <point x="369" y="174"/>
      <point x="469" y="348"/>
      <point x="517" y="522" type="curve"/>
      <point x="433" y="522" type="line"/>
      <point x="395" y="374"/>
      <point x="313" y="225"/>
      <point x="206" y="77" type="curve"/>
      <point x="147" y="522" type="line"/>
    </contour>
  </outline>
</glyph>
<glyph name="brokenbar" format="2">
  <advance width="296"/>
  <unicode hex="00A6"/>
  <outline>
    <contour>
      <point x="191" y="273" type="line"/>
      <point x="115" y="273" type="line"/>
      <point x="115" y="-130" type="line"/>
      <point x="191" y="-130" type="line"/>
    </contour>
    <contour>
      <point x="191" y="775" type="line"/>
      <point x="115" y="775" type="line"/>
      <point x="115" y="372" type="line"/>
      <point x="191" y="372" type="line"/>
    </contour>
  </outline>
</glyph>
<glyph name="guillemetleft" format="2">
  <advance width="576"/>
  <unicode hex="00AB"/>
  <outline>
    <contour>
      <point x="36" y="280" type="line"/>
      <point x="26" y="234" type="line"/>
      <point x="230" y="60" type="line"/>
      <point x="246" y="134" type="line"/>
      <point x="102" y="259" type="line"/>
      <point x="300" y="387" type="line"/>
      <point x="316" y="461" type="line"/>
    </contour>
    <contour>
      <point x="270" y="280" type="line"/>
      <point x="261" y="234" type="line"/>
      <point x="465" y="60" type="line"/>
      <point x="481" y="134" type="line"/>
      <point x="337" y="259" type="line"/>
      <point x="535" y="387" type="line"/>
      <point x="550" y="461" type="line"/>
    </contour>
  </outline>
</glyph>
<glyph name="plusminus" format="2">
  <advance width="485"/>
  <unicode hex="00B1"/>
  <outline>
    <contour>
      <point x="64" y="51" type="line"/>
      <point x="396" y="51" type="line"/>
      <point x="396" y="123" type="line"/>
      <point x="64" y="123" type="line"/>
    </contour>
    <contour>
      <point x="396" y="404" type="line"/>
      <point x="270" y="404" type="line"/>
      <point x="270" y="540" type="line"/>
      <point x="190" y="540" type="line"/>
      <point x="190" y="404" type="line"/>
      <point x="64" y="404" type="line"/>
      <point x="64" y="332" type="line"/>
      <point x="190" y="332" type="line"/>
      <point x="190" y="196" type="line"/>
      <point x="270" y="196" type="line"/>
      <point x="270" y="332" type="line"/>
      <point x="396" y="332" type="line"/>
    </contour>
  </outline>
</glyph>
<glyph name="dcroat" format="2">
  <advance width="606"/>
  <unicode hex="0111"/>
  <outline>
    <contour>
      <point x="427" y="657" type="line"/>
      <point x="415" y="601" type="line"/>
      <point x="671" y="601" type="line"/>
      <point x="683" y="657" type="line"/>
    </contour>
    <component base="d"/>
  </outline>
</glyph>
<glyph name="Lslash" format="2">
  <advance width="565"/>
  <unicode hex="0141"/>
  <outline>
    <contour>
      <point x="9" y="283" type="line"/>
      <point x="24" y="233" type="line"/>
      <point x="374" y="474" type="line"/>
      <point x="360" y="523" type="line"/>
    </contour>
    <component base="L"/>
  </outline>
</glyph>
<glyph name="lslash" format="2">
  <advance width="301"/>
  <unicode hex="0142"/>
  <outline>
    <contour>
      <point x="15" y="332" type="line"/>
      <point x="30" y="283" type="line"/>
      <point x="324" y="473" type="line"/>
      <point x="308" y="522" type="line"/>
    </contour>
    <contour>
      <point x="76" y="-7"/>
      <point x="131" y="-7" type="curve" smooth="yes"/>
      <point x="161" y="-7"/>
      <point x="207" y="2"/>
      <point x="238" y="14" type="curve"/>
      <point x="241" y="85" type="line"/>
      <point x="223" y="78"/>
      <point x="199" y="73"/>
      <point x="185" y="73" type="curve" smooth="yes"/>
      <point x="156" y="73"/>
      <point x="141" y="89"/>
      <point x="141" y="116" type="curve" smooth="yes"/>
      <point x="141" y="126"/>
      <point x="143" y="138"/>
      <point x="147" y="155" type="curve" smooth="yes"/>
      <point x="269" y="730" type="line"/>
      <point x="181" y="730" type="line"/>
      <point x="48" y="103" type="line" smooth="yes"/>
      <point x="46" y="92"/>
      <point x="44" y="81"/>
      <point x="44" y="71" type="curve" smooth="yes"/>
      <point x="44" y="22"/>
    </contour>
  </outline>
</glyph>
<glyph name="oe" format="2">
  <advance width="979"/>
  <unicode hex="0153"/>
  <outline>
    <contour>
      <point x="100" y="-10"/>
      <point x="222" y="-10" type="curve" smooth="yes"/>
      <point x="310" y="-10"/>
      <point x="394" y="45"/>
      <point x="461" y="139" type="curve"/>
      <point x="489" y="48"/>
      <point x="555" y="-10"/>
      <point x="644" y="-10" type="curve" smooth="yes"/>
      <point x="739" y="-10"/>
      <point x="838" y="43"/>
      <point x="890" y="122" type="curve"/>
      <point x="820" y="143" type="line"/>
      <point x="791" y="91"/>
      <point x="724" y="55"/>
      <point x="661" y="55" type="curve" smooth="yes"/>
      <point x="581" y="55"/>
      <point x="527" y="117"/>
      <point x="527" y="201" type="curve" smooth="yes"/>
      <point x="527" y="211"/>
      <point x="527" y="221"/>
      <point x="529" y="231" type="curve"/>
      <point x="937" y="231" type="line"/>
      <point x="941" y="239"/>
      <point x="950" y="263"/>
      <point x="950" y="311" type="curve" smooth="yes"/>
      <point x="950" y="443"/>
      <point x="876" y="531"/>
      <point x="752" y="531" type="curve" smooth="yes"/>
      <point x="657" y="531"/>
      <point x="572" y="476"/>
      <point x="511" y="379" type="curve"/>
      <point x="494" y="473"/>
      <point x="430" y="531"/>
      <point x="338" y="531" type="curve" smooth="yes"/>
      <point x="174" y="531"/>
      <point x="22" y="384"/>
      <point x="22" y="207" type="curve" smooth="yes"/>
      <point x="22" y="83"/>
    </contour>
    <contour>
      <point x="345" y="66"/>
      <point x="239" y="66" type="curve" smooth="yes"/>
      <point x="163" y="66"/>
      <point x="113" y="131"/>
      <point x="113" y="217" type="curve" smooth="yes"/>
      <point x="113" y="345"/>
      <point x="217" y="455"/>
      <point x="322" y="455" type="curve" smooth="yes"/>
      <point x="398" y="455"/>
      <point x="447" y="388"/>
      <point x="447" y="301" type="curve" smooth="yes"/>
      <point x="447" y="174"/>
    </contour>
    <contour>
      <point x="865" y="288" type="curve"/>
      <point x="539" y="288" type="line"/>
      <point x="566" y="391"/>
      <point x="649" y="465"/>
      <point x="736" y="465" type="curve" smooth="yes"/>
      <point x="814" y="465"/>
      <point x="867" y="407"/>
      <point x="867" y="320" type="curve" smooth="yes"/>
      <point x="867" y="310"/>
      <point x="866" y="299"/>
    </contour>
  </outline>
</glyph>
<glyph name="jdotless" format="2">
  <advance width="226"/>
  <unicode hex="0237"/>
  <anchor x="58" y="0" name="bottom"/>
  <anchor x="168" y="522" name="top"/>
  <outline>
    <contour>
      <point x="-147" y="-186"/>
      <point x="-103" y="-186" type="curve" smooth="yes"/>
      <point x="-20" y="-186"/>
      <point x="68" y="-116"/>
      <point x="89" y="-17" type="curve" smooth="yes"/>
      <point x="204" y="522" type="line"/>
      <point x="116" y="522" type="line"/>
      <point x="0" y="-23" type="line" smooth="yes"/>
      <point x="-10" y="-72"/>
      <point x="-56" y="-108"/>
      <point x="-96" y="-108" type="curve" smooth="yes"/>
      <point x="-119" y="-108"/>
      <point x="-142" y="-102"/>
      <point x="-156" y="-85" type="curve"/>
      <point x="-209" y="-144" type="line"/>
      <point x="-184" y="-173"/>
    </contour>
  </outline>
</glyph>
<glyph name="schwa" format="2">
  <advance width="567"/>
  <unicode hex="0259"/>
  <outline>
    <contour>
      <point x="213" y="-10" type="curve" smooth="yes"/>
      <point x="386" y="-10"/>
      <point x="528" y="143"/>
      <point x="528" y="311" type="curve" smooth="yes"/>
      <point x="528" y="433"/>
      <point x="453" y="531"/>
      <point x="326" y="531" type="curve" smooth="yes"/>
      <point x="224" y="531"/>
      <point x="128" y="475"/>
      <point x="79" y="399" type="curve"/>
      <point x="150" y="378" type="line"/>
      <point x="182" y="429"/>
      <point x="248" y="464"/>
      <point x="308" y="464" type="curve" smooth="yes"/>
      <point x="383" y="464"/>
      <point x="436" y="407"/>
      <point x="436" y="322" type="curve" smooth="yes"/>
      <point x="436" y="312"/>
      <point x="435" y="301"/>
      <point x="434" y="290" type="curve"/>
      <point x="26" y="290" type="line"/>
      <point x="14" y="262"/>
      <point x="10" y="226"/>
      <point x="10" y="197" type="curve" smooth="yes"/>
      <point x="10" y="80"/>
      <point x="84" y="-10"/>
    </contour>
    <contour>
      <point x="228" y="56" type="curve" smooth="yes"/>
      <point x="150" y="56"/>
      <point x="95" y="114"/>
      <point x="95" y="200" type="curve" smooth="yes"/>
      <point x="95" y="211"/>
      <point x="95" y="221"/>
      <point x="97" y="232" type="curve"/>
      <point x="424" y="232" type="line"/>
      <point x="396" y="130"/>
      <point x="314" y="56"/>
    </contour>
  </outline>
</glyph>
<glyph name="firsttonechinese" format="2">
  <advance width="379"/>
  <unicode hex="02C9"/>
  <anchor x="243" y="522" name="_top"/>
  <outline>
    <contour>
      <point x="140" y="654" type="line"/>
      <point x="405" y="654" type="line"/>
      <point x="419" y="712" type="line"/>
      <point x="154" y="712" type="line"/>
    </contour>
  </outline>
</glyph>
<glyph name="gravecomb" format="2">
  <unicode hex="0300"/>
  <anchor x="241" y="522" name="_top"/>
  <anchor x="223" y="730" name="top"/>
  <outline>
    <contour>
      <point x="150" y="730" type="line"/>
      <point x="209" y="609" type="line"/>
      <point x="270" y="629" type="line"/>
      <point x="236" y="730" type="line"/>
    </contour>
  </outline>
</glyph>
<glyph name="macroncomb" format="2">
  <unicode hex="0304"/>
  <anchor x="245" y="522" name="_top"/>
  <anchor x="285" y="710" name="top"/>
  <outline>
    <contour>
      <point x="133" y="652" type="line"/>
      <point x="411" y="652" type="line"/>
      <point x="424" y="710" type="line"/>
      <point x="145" y="710" type="line"/>
    </contour>
  </outline>
</glyph>
<glyph name="dotbelowcomb" format="2">
  <unicode hex="0323"/>
  <anchor x="34" y="0" name="_bottom"/>
  <anchor x="-4" y="-182" name="bottom"/>
  <outline>
    <contour>
      <point x="-44" y="-182" type="line"/>
      <point x="36" y="-182" type="line"/>
      <point x="58" y="-76" type="line"/>
      <point x="-21" y="-76" type="line"/>
    </contour>
  </outline>
</glyph>
<glyph name="strokeshortcomb" format="2">
  <unicode hex="0335"/>
  <anchor x="172" y="300" name="_center"/>
  <outline>
    <contour>
      <point x="54" y="272" type="line"/>
      <point x="278" y="272" type="line"/>
      <point x="290" y="328" type="line"/>
      <point x="66" y="328" type="line"/>
    </contour>
  </outline>
</glyph>
<glyph name="E-cy" format="2">
  <advance width="722"/>
  <unicode hex="0404"/>
  <outline>
    <contour>
      <point x="70" y="323" type="line"/>
      <point x="439" y="323" type="line"/>
      <point x="454" y="403" type="line"/>
      <point x="86" y="403" type="line"/>
    </contour>
    <component base="Es-cy"/>
  </outline>
</glyph>
<glyph name="Dzhe-cy" format="2">
  <advance width="701"/>
  <unicode hex="040F"/>
  <outline>
    <contour>
      <point x="219" y="-136" type="line"/>
      <point x="297" y="-136" type="line"/>
      <point x="326" y="0" type="line"/>
      <point x="553" y="0" type="line"/>
      <point x="704" y="710" type="line"/>
      <point x="614" y="710" type="line"/>
      <point x="480" y="80" type="line"/>
      <point x="127" y="80" type="line"/>
      <point x="261" y="710" type="line"/>
      <point x="171" y="710" type="line"/>
      <point x="20" y="0" type="line"/>
      <point x="248" y="0" type="line"/>
    </contour>
  </outline>
</glyph>
<glyph name="Zhe-cy" format="2">
  <advance width="994"/>
  <unicode hex="0416"/>
  <anchor x="825" y="0" name="bottomright"/>
  <anchor x="573" y="710" name="top"/>
  <outline>
    <contour>
      <point x="-42" y="0" type="line"/>
      <point x="60" y="0" type="line"/>
      <point x="357" y="323" type="line"/>
      <point x="445.189" y="323" type="line"/>
      <point x="377" y="0" type="line"/>
      <point x="467" y="0" type="line"/>
      <point x="535.189" y="323" type="line"/>
      <point x="651" y="323" type="line"/>
      <point x="825" y="0" type="line"/>
      <point x="916" y="0" type="line"/>
      <point x="712" y="371" type="line"/>
      <point x="1045" y="710" type="line"/>
      <point x="939" y="710" type="line"/>
      <point x="642" y="401" type="line"/>
      <point x="551.806" y="401" type="line"/>
      <point x="617" y="710" type="line"/>
      <point x="527" y="710" type="line"/>
      <point x="461.806" y="401" type="line"/>
      <point x="363" y="401" type="line"/>
      <point x="189" y="710" type="line"/>
      <point x="99" y="710" type="line"/>
      <point x="293" y="367" type="line"/>
    </contour>
  </outline>
</glyph>
<glyph name="Ze-cy" format="2">
  <advance width="570"/>
  <unicode hex="0417"/>
  <anchor x="226" y="0" name="bottom"/>
  <anchor x="353" y="710" name="top"/>
  <outline>
    <contour>
      <point x="231" y="-8" type="curve" smooth="yes"/>
      <point x="378" y="-8"/>
      <point x="485" y="64"/>
      <point x="504" y="186" type="curve" smooth="yes"/>
      <point x="517" y="274"/>
      <point x="480" y="345"/>
      <point x="402" y="369" type="curve"/>
      <point x="471" y="397"/>
      <point x="516" y="458"/>
      <point x="527" y="525" type="curve" smooth="yes"/>
      <point x="544" y="643"/>
      <point x="469" y="718"/>
      <point x="340" y="718" type="curve" smooth="yes"/>
      <point x="239" y="718"/>
      <point x="162" y="671"/>
      <point x="107" y="599" type="curve"/>
      <point x="167" y="554" type="line"/>
      <point x="202" y="611"/>
      <point x="267" y="641"/>
      <point x="334" y="641" type="curve" smooth="yes"/>
      <point x="415" y="641"/>
      <point x="448" y="593"/>
      <point x="437" y="518" type="curve" smooth="yes"/>
      <point x="427" y="451"/>
      <point x="373" y="401"/>
      <point x="302" y="401" type="curve" smooth="yes"/>
      <point x="246" y="401" type="line"/>
      <point x="232" y="330" type="line"/>
      <point x="291" y="330" type="line" smooth="yes"/>
      <point x="383" y="330"/>
      <point x="426" y="274"/>
      <point x="414" y="194" type="curve" smooth="yes"/>
      <point x="402" y="112"/>
      <point x="342" y="66"/>
      <point x="245" y="66" type="curve" smooth="yes"/>
      <point x="172" y="66"/>
      <point x="114" y="95"/>
      <point x="90" y="157" type="curve"/>
      <point x="14" y="115" type="line"/>
      <point x="49" y="37"/>
      <point x="128" y="-8"/>
    </contour>
  </outline>
</glyph>
<glyph name="Ef-cy" format="2">
  <advance width="833"/>
  <unicode hex="0424"/>
  <outline>
    <contour>
      <point x="347" y="81" type="curve"/>
      <point x="355" y="156" type="line"/>
      <point x="227" y="160"/>
      <point x="121" y="235"/>
      <point x="147" y="377" type="curve" smooth="yes"/>
      <point x="172" y="514"/>
      <point x="297" y="597"/>
      <point x="451" y="597" type="curve"/>
      <point x="459" y="672" type="line"/>
      <point x="266" y="672"/>
      <point x="89" y="565"/>
      <point x="55" y="377" type="curve" smooth="yes"/>
      <point x="24" y="196"/>
      <point x="162" y="84"/>
    </contour>
    <contour>
      <point x="310" y="0" type="line"/>
      <point x="395" y="0" type="line"/>
      <point x="415" y="95" type="line"/>
      <point x="416" y="110" type="line"/>
      <point x="530" y="650" type="line"/>
      <point x="536" y="665" type="line"/>
      <point x="552" y="743" type="line"/>
      <point x="466" y="743" type="line"/>
      <point x="450" y="665" type="line"/>
      <point x="449" y="650" type="line"/>
      <point x="336" y="111" type="line"/>
      <point x="330" y="96" type="line"/>
    </contour>
    <contour>
      <point x="402" y="81" type="line"/>
      <point x="597" y="81"/>
      <point x="778" y="196"/>
      <point x="809" y="377" type="curve" smooth="yes"/>
      <point x="840" y="561"/>
      <point x="698" y="670"/>
      <point x="516" y="672" type="curve"/>
      <point x="509" y="597" type="line"/>
      <point x="640" y="594"/>
      <point x="741" y="516"/>
      <point x="717" y="377" type="curve" smooth="yes"/>
      <point x="693" y="240"/>
      <point x="560" y="156"/>
      <point x="411" y="156" type="curve"/>
    </contour>
  </outline>
</glyph>
<glyph name="Che-cy" format="2">
  <advance width="674"/>
  <unicode hex="0427"/>
  <anchor x="436" y="0" name="bottomright"/>
  <anchor x="339" y="302" name="center"/>
  <anchor x="423" y="710" name="top"/>
  <outline>
    <contour>
      <point x="587" y="710" type="line"/>
      <point x="517" y="378" type="line"/>
      <point x="473" y="354"/>
      <point x="400" y="337"/>
      <point x="335" y="337" type="curve" smooth="yes"/>
      <point x="212" y="337"/>
      <point x="171" y="380"/>
      <point x="192" y="483" type="curve" smooth="yes"/>
      <point x="243" y="710" type="line"/>
      <point x="153" y="710" type="line"/>
      <point x="105" y="498" type="line" smooth="yes"/>
      <point x="72" y="343"/>
      <point x="138" y="260"/>
      <point x="310" y="260" type="curve" smooth="yes"/>
      <point x="377" y="260"/>
      <point x="442" y="273"/>
      <point x="499" y="294" type="curve"/>
      <point x="437" y="0" type="line"/>
      <point x="527" y="0" type="line"/>
      <point x="677" y="710" type="line"/>
    </contour>
  </outline>
</glyph>
<glyph name="Sha-cy" format="2">
  <advance width="949"/>
  <unicode hex="0428"/>
  <outline>
    <contour>
      <point x="20" y="0" type="line"/>
      <point x="802" y="0" type="line"/>
      <point x="952" y="710" type="line"/>
      <point x="862" y="710" type="line"/>
      <point x="728" y="80" type="line"/>
      <point x="473" y="80" type="line"/>
      <point x="606" y="710" type="line"/>
      <point x="516" y="710" type="line"/>
      <point x="383" y="80" type="line"/>
      <point x="127" y="80" type="line"/>
      <point x="260" y="710" type="line"/>
      <point x="170" y="710" type="line"/>
    </contour>
  </outline>
</glyph>
<glyph name="Iu-cy" format="2">
  <advance width="1023"/>
  <unicode hex="042E"/>
  <outline>
    <contour>
      <point x="20" y="0" type="line"/>
      <point x="110" y="0" type="line"/>
      <point x="177" y="317" type="line"/>
      <point x="340" y="317" type="line"/>
      <point x="356" y="397" type="line"/>
      <point x="193" y="397" type="line"/>
      <point x="260" y="710" type="line"/>
      <point x="170" y="710" type="line"/>
    </contour>
    <component base="O-cy" xOffset="258"/>
  </outline>
</glyph>
<glyph name="ge-cy" format="2">
  <advance width="491"/>
  <unicode hex="0433"/>
  <anchor x="210" y="0" name="bottomright"/>
  <anchor x="285" y="522" name="top"/>
  <outline>
    <contour>
      <point x="219" y="-10" type="curve" smooth="yes"/>
      <point x="317" y="-10"/>
      <point x="388" y="23"/>
      <point x="437" y="76" type="curve"/>
      <point x="381" y="124" type="line"/>
      <point x="345" y="82"/>
      <point x="292" y="59"/>
      <point x="236" y="59" type="curve" smooth="yes"/>
      <point x="161" y="59"/>
      <point x="123" y="86"/>
      <point x="128" y="135" type="curve" smooth="yes"/>
      <point x="133" y="181"/>
      <point x="164" y="202"/>
      <point x="269" y="236" type="curve" smooth="yes"/>
      <point x="386" y="273"/>
      <point x="441" y="313"/>
      <point x="447" y="392" type="curve" smooth="yes"/>
      <point x="451" y="478"/>
      <point x="396" y="532"/>
      <point x="284" y="532" type="curve" smooth="yes"/>
      <point x="190" y="532"/>
      <point x="116" y="499"/>
      <point x="73" y="442" type="curve"/>
      <point x="136" y="403" type="line"/>
      <point x="165" y="443"/>
      <point x="216" y="466"/>
      <point x="270" y="466" type="curve" smooth="yes"/>
      <point x="327" y="466"/>
      <point x="360" y="440"/>
      <point x="356" y="392" type="curve" smooth="yes"/>
      <point x="351" y="347"/>
      <point x="324" y="325"/>
      <point x="234" y="296" type="curve" smooth="yes"/>
      <point x="100" y="253"/>
      <point x="43" y="215"/>
      <point x="37" y="136" type="curve" smooth="yes"/>
      <point x="31" y="47"/>
      <point x="90" y="-10"/>
    </contour>
  </outline>
</glyph>
<glyph name="de-cy" format="2">
  <advance width="606"/>
  <unicode hex="0434"/>
  <outline>
    <contour>
      <point x="255" y="-10" type="curve" smooth="yes"/>
      <point x="398" y="-10"/>
      <point x="485" y="84"/>
      <point x="530" y="192" type="curve" smooth="yes"/>
      <point x="569" y="285"/>
      <point x="583" y="374"/>
      <point x="583" y="461" type="curve" smooth="yes"/>
      <point x="583" y="570"/>
      <point x="539" y="642"/>
      <point x="464" y="683" type="curve" smooth="yes"/>
      <point x="395" y="721"/>
      <point x="301" y="731"/>
      <point x="191" y="719" type="curve"/>
      <point x="191" y="645" type="line"/>
      <point x="294" y="656"/>
      <point x="372" y="650"/>
      <point x="424" y="622" type="curve" smooth="yes"/>
      <point x="494" y="585"/>
      <point x="519" y="508"/>
      <point x="500" y="377" type="curve"/>
      <point x="481" y="454"/>
      <point x="410" y="511"/>
      <point x="314" y="511" type="curve" smooth="yes"/>
      <point x="170" y="511"/>
      <point x="59" y="398"/>
      <point x="38" y="255" type="curve" smooth="yes"/>
      <point x="17" y="114"/>
      <point x="101" y="-10"/>
    </contour>
    <contour>
      <point x="267" y="61" type="curve" smooth="yes"/>
      <point x="173" y="61"/>
      <point x="110" y="143"/>
      <point x="125" y="250" type="curve" smooth="yes"/>
      <point x="141" y="363"/>
      <point x="224" y="441"/>
      <point x="320" y="441" type="curve" smooth="yes"/>
      <point x="416" y="441"/>
      <point x="477" y="358"/>
      <point x="462" y="251" type="curve" smooth="yes"/>
      <point x="447" y="143"/>
      <point x="360" y="61"/>
    </contour>
  </outline>
</glyph>
<glyph name="em-cy" format="2">
  <advance width="697"/>
  <unicode hex="043C"/>
  <anchor x="490" y="0" name="bottomright"/>
  <outline>
    <contour>
      <point x="13" y="0" type="line"/>
      <point x="97" y="0" type="line"/>
      <point x="182" y="401" type="line"/>
      <point x="287" y="93" type="line"/>
      <point x="343" y="93" type="line"/>
      <point x="574" y="399" type="line"/>
      <point x="490" y="0" type="line"/>
      <point x="574" y="0" type="line"/>
      <point x="684" y="522" type="line"/>
      <point x="581" y="522" type="line"/>
      <point x="330" y="192" type="line"/>
      <point x="221" y="522" type="line"/>
      <point x="123" y="522" type="line"/>
    </contour>
  </outline>
</glyph>
<glyph name="pe-cy" format="2">
  <advance width="569"/>
  <unicode hex="043F"/>
  <anchor x="369" y="0" name="bottomright"/>
  <outline>
    <contour>
      <point x="13" y="0" type="line"/>
      <point x="101" y="0" type="line"/>
      <point x="197" y="453" type="line"/>
      <point x="453" y="453" type="line"/>
      <point x="357" y="0" type="line"/>
      <point x="445" y="0" type="line"/>
      <point x="556" y="522" type="line"/>
      <point x="123" y="522" type="line"/>
    </contour>
  </outline>
</glyph>
<glyph name="shcha-cy" format="2">
  <advance width="914"/>
  <unicode hex="0449"/>
  <outline>
    <contour>
      <point x="720" y="-123" type="line"/>
      <point x="800" y="-123" type="line"/>
      <point x="840" y="68" type="line"/>
      <point x="814" y="68" type="line" smooth="yes"/>
      <point x="772" y="68"/>
      <point x="767" y="81"/>
      <point x="780" y="142" type="curve" smooth="yes"/>
      <point x="861" y="522" type="line"/>
      <point x="773" y="522" type="line"/>
      <point x="706" y="207" type="line"/>
      <point x="666" y="125"/>
      <point x="596" y="70"/>
      <point x="530" y="70" type="curve" smooth="yes"/>
      <point x="477" y="70"/>
      <point x="459" y="106"/>
      <point x="459" y="158" type="curve" smooth="yes"/>
      <point x="459" y="179"/>
      <point x="462" y="204"/>
      <point x="468" y="230" type="curve" smooth="yes"/>
      <point x="530" y="522" type="line"/>
      <point x="442" y="522" type="line"/>
      <point x="376" y="208" type="line"/>
      <point x="336" y="127"/>
      <point x="266" y="70"/>
      <point x="200" y="70" type="curve" smooth="yes"/>
      <point x="148" y="70"/>
      <point x="128" y="103"/>
      <point x="128" y="155" type="curve" smooth="yes"/>
      <point x="128" y="177"/>
      <point x="131" y="203"/>
      <point x="137" y="230" type="curve" smooth="yes"/>
      <point x="199" y="522" type="line"/>
      <point x="111" y="522" type="line"/>
      <point x="44" y="210" type="line" smooth="yes"/>
      <point x="38" y="181"/>
      <point x="34" y="154"/>
      <point x="34" y="130" type="curve" smooth="yes"/>
      <point x="33" y="46"/>
      <point x="69" y="-9"/>
      <point x="161" y="-9" type="curve" smooth="yes"/>
      <point x="236" y="-9"/>
      <point x="306" y="33"/>
      <point x="364" y="112" type="curve"/>
      <point x="369" y="36"/>
      <point x="417" y="-9"/>
      <point x="496" y="-9" type="curve" smooth="yes"/>
      <point x="569" y="-9"/>
      <point x="645" y="39"/>
      <point x="695" y="113" type="curve"/>
      <point x="680" y="34"/>
      <point x="690" y="4"/>
      <point x="746" y="0" type="curve"/>
    </contour>
  </outline>
</glyph>
<glyph name="yeru-cy" format="2">
  <advance width="693"/>
  <unicode hex="044B"/>
  <anchor x="404" y="522" name="top"/>
  <outline>
    <contour>
      <point x="219" y="-8" type="curve" smooth="yes"/>
      <point x="330" y="-8"/>
      <point x="418" y="47"/>
      <point x="436" y="166" type="curve" smooth="yes"/>
      <point x="451" y="280"/>
      <point x="385" y="360"/>
      <point x="256" y="360" type="curve" smooth="yes"/>
      <point x="130" y="360" type="line"/>
      <point x="119" y="291" type="line"/>
      <point x="234" y="291" type="line" smooth="yes"/>
      <point x="323" y="291"/>
      <point x="354" y="247"/>
      <point x="345" y="177" type="curve" smooth="yes"/>
      <point x="336" y="109"/>
      <point x="291" y="64"/>
      <point x="229" y="64" type="curve" smooth="yes"/>
      <point x="162" y="64"/>
      <point x="115" y="107"/>
      <point x="131" y="200" type="curve" smooth="yes"/>
      <point x="152" y="308"/>
      <point x="179" y="415"/>
      <point x="204" y="522" type="curve"/>
      <point x="116" y="522" type="line"/>
      <point x="91" y="417"/>
      <point x="64" y="310"/>
      <point x="43" y="205" type="curve" smooth="yes"/>
      <point x="16" y="59"/>
      <point x="98" y="-8"/>
    </contour>
    <component base="idotless" xOffset="476"/>
  </outline>
</glyph>
<glyph name="softsign-cy" format="2">
  <advance width="529"/>
  <unicode hex="044C"/>
  <outline>
    <contour>
      <point x="229" y="-8" type="curve" smooth="yes"/>
      <point x="350" y="-8"/>
      <point x="446" y="47"/>
      <point x="466" y="166" type="curve" smooth="yes"/>
      <point x="482" y="280"/>
      <point x="412" y="360"/>
      <point x="276" y="360" type="curve" smooth="yes"/>
      <point x="130" y="360" type="line"/>
      <point x="119" y="291" type="line"/>
      <point x="254" y="291" type="line" smooth="yes"/>
      <point x="351" y="291"/>
      <point x="385" y="247"/>
      <point x="375" y="177" type="curve" smooth="yes"/>
      <point x="365" y="109"/>
      <point x="312" y="64"/>
      <point x="239" y="64" type="curve" smooth="yes"/>
      <point x="165" y="64"/>
      <point x="113" y="107"/>
      <point x="131" y="200" type="curve" smooth="yes"/>
      <point x="152" y="308"/>
      <point x="179" y="415"/>
      <point x="204" y="522" type="curve"/>
      <point x="116" y="522" type="line"/>
      <point x="91" y="417"/>
      <point x="64" y="310"/>
      <point x="43" y="205" type="curve" smooth="yes"/>
      <point x="14" y="59"/>
      <point x="101" y="-8"/>
    </contour>
  </outline>
</glyph>
<glyph name="iu-cy" format="2">
  <advance width="827"/>
  <unicode hex="044E"/>
  <guideline x="184" y="391" angle="78.1444"/>
  <outline>
    <contour>
      <point x="13" y="0" type="line"/>
      <point x="101" y="0" type="line"/>
      <point x="150" y="233" type="line"/>
      <point x="281" y="233" type="line"/>
      <point x="296" y="302" type="line"/>
      <point x="165" y="302" type="line"/>
      <point x="211" y="522" type="line"/>
      <point x="123" y="522" type="line"/>
    </contour>
    <component base="o-cy" xOffset="217"/>
  </outline>
</glyph>
<glyph name="tshe-cy" format="2">
  <advance width="600"/>
  <unicode hex="045B"/>
  <outline>
    <contour>
      <point x="13" y="0" type="line"/>
      <point x="101" y="0" type="line"/>
      <point x="219" y="557" type="line"/>
      <point x="448" y="557" type="line"/>
      <point x="460" y="613" type="line"/>
      <point x="231" y="613" type="line"/>
      <point x="256" y="730" type="line"/>
      <point x="168" y="730" type="line"/>
      <point x="143" y="613" type="line"/>
      <point x="66" y="613" type="line"/>
      <point x="55" y="557" type="line"/>
      <point x="131" y="557" type="line"/>
    </contour>
    <contour>
      <point x="384" y="0" type="line"/>
      <point x="472" y="0" type="line"/>
      <point x="527" y="264" type="line" smooth="yes"/>
      <point x="553" y="389"/>
      <point x="490" y="465"/>
      <point x="380" y="465" type="curve" smooth="yes"/>
      <point x="293" y="465"/>
      <point x="222" y="425"/>
      <point x="169" y="356" type="curve"/>
      <point x="155" y="261" type="line"/>
      <point x="200" y="340"/>
      <point x="267" y="386"/>
      <point x="350" y="386" type="curve" smooth="yes"/>
      <point x="427" y="386"/>
      <point x="452" y="337"/>
      <point x="437" y="254" type="curve" smooth="yes"/>
    </contour>
  </outline>
</glyph>
<glyph name="Izhitsa-cy" format="2">
  <advance width="665"/>
  <unicode hex="0474"/>
  <outline>
    <contour>
      <point x="219" y="0" type="line"/>
      <point x="297" y="0" type="line"/>
      <point x="599" y="549" type="line" smooth="yes"/>
      <point x="636" y="615"/>
      <point x="660" y="634"/>
      <point x="704" y="634" type="curve" smooth="yes"/>
      <point x="729" y="634" type="line"/>
      <point x="753" y="710" type="line"/>
      <point x="709" y="710" type="line" smooth="yes"/>
      <point x="626" y="710"/>
      <point x="582" y="678"/>
      <point x="529" y="584" type="curve" smooth="yes"/>
      <point x="280.21" y="124.556" type="line"/>
      <point x="190" y="710" type="line"/>
      <point x="95" y="710" type="line"/>
    </contour>
  </outline>
</glyph>
<glyph name="Semisoftsign-cy" format="2">
  <advance width="646"/>
  <unicode hex="048C"/>
  <outline>
    <contour>
      <point x="85" y="572" type="line"/>
      <point x="428" y="572" type="line"/>
      <point x="440" y="628" type="line"/>
      <point x="97" y="628" type="line"/>
    </contour>
    <contour>
      <point x="43" y="0" type="line"/>
      <point x="328" y="0" type="line" smooth="yes"/>
      <point x="477" y="0"/>
      <point x="572" y="96"/>
      <point x="592" y="221" type="curve" smooth="yes"/>
      <point x="613" y="352"/>
      <point x="547" y="441"/>
      <point x="392" y="441" type="curve" smooth="yes"/>
      <point x="226" y="441" type="line"/>
      <point x="283" y="710" type="line"/>
      <point x="193" y="710" type="line"/>
    </contour>
    <contour>
      <point x="149" y="75" type="line"/>
      <point x="210" y="366" type="line"/>
      <point x="373" y="366" type="line" smooth="yes"/>
      <point x="487" y="366"/>
      <point x="512" y="296"/>
      <point x="500" y="221" type="curve" smooth="yes"/>
      <point x="488" y="144"/>
      <point x="434" y="75"/>
      <point x="328" y="75" type="curve" smooth="yes"/>
    </contour>
  </outline>
</glyph>
<glyph name="Ertick-cy" format="2">
  <advance width="605"/>
  <unicode hex="048E"/>
  <guideline x="596" y="552" angle="90"/>
  <outline>
    <contour>
      <point x="371" y="426" type="line"/>
      <point x="515" y="195" type="line"/>
      <point x="562" y="226" type="line"/>
      <point x="419" y="458" type="line"/>
    </contour>
    <contour>
      <point x="171" y="710" type="line"/>
      <point x="20" y="0" type="line"/>
      <point x="110" y="0" type="line"/>
      <point x="164" y="255" type="line"/>
      <point x="361" y="255" type="line" smooth="yes"/>
      <point x="499" y="255"/>
      <point x="615" y="393"/>
      <point x="615" y="522" type="curve" smooth="yes"/>
      <point x="615" y="618"/>
      <point x="555" y="710"/>
      <point x="453" y="710" type="curve" smooth="yes"/>
    </contour>
    <contour>
      <point x="373" y="335" type="curve" smooth="yes"/>
      <point x="181" y="335" type="line"/>
      <point x="244" y="630" type="line"/>
      <point x="430" y="630" type="line" smooth="yes"/>
      <point x="484" y="630"/>
      <point x="523" y="581"/>
      <point x="523" y="514" type="curve" smooth="yes"/>
      <point x="523" y="423"/>
      <point x="454" y="335"/>
    </contour>
  </outline>
</glyph>
<glyph name="Gheupturn-cy" format="2">
  <advance width="510"/>
  <unicode hex="0490"/>
  <outline>
    <contour>
      <point x="20" y="0" type="line"/>
      <point x="110" y="0" type="line"/>
      <point x="243" y="630" type="line"/>
      <point x="566" y="630" type="line"/>
      <point x="614" y="857" type="line"/>
      <point x="534" y="857" type="line"/>
      <point x="504" y="710" type="line"/>
      <point x="171" y="710" type="line"/>
    </contour>
  </outline>
</glyph>
<glyph name="gheupturn-cy" format="2">
  <advance width="431"/>
  <unicode hex="0491"/>
  <outline>
    <contour>
      <point x="-40" y="-173" type="curve" smooth="yes"/>
      <point x="62" y="-173"/>
      <point x="114" y="-101"/>
      <point x="137" y="0" type="curve" smooth="yes"/>
      <point x="234" y="453" type="line"/>
      <point x="455" y="453" type="line"/>
      <point x="496" y="645" type="line"/>
      <point x="417" y="645" type="line"/>
      <point x="390" y="522" type="line"/>
      <point x="160" y="522" type="line"/>
      <point x="49" y="-1" type="line" smooth="yes"/>
      <point x="35" y="-64"/>
      <point x="13" y="-97"/>
      <point x="-41" y="-97" type="curve" smooth="yes"/>
      <point x="-66" y="-97"/>
      <point x="-93" y="-88"/>
      <point x="-108" y="-76" type="curve"/>
      <point x="-143" y="-140" type="line"/>
      <point x="-116" y="-160"/>
      <point x="-78" y="-173"/>
    </contour>
  </outline>
</glyph>
<glyph name="Kadescender-cy" format="2">
  <advance width="682"/>
  <unicode hex="049A"/>
  <outline>
    <contour>
      <point x="499" y="-135" type="line"/>
      <point x="577" y="-135" type="line"/>
      <point x="623" y="80" type="line"/>
      <point x="488" y="80" type="line"/>
      <point x="470" y="0" type="line"/>
      <point x="528" y="0" type="line"/>
    </contour>
    <component base="Ka-cy"/>
  </outline>
</glyph>
<glyph name="kadescender-cy" format="2">
  <advance width="537"/>
  <unicode hex="049B"/>
  <outline>
    <contour>
      <point x="365" y="-123" type="line"/>
      <point x="445" y="-123" type="line"/>
      <point x="488" y="77" type="line"/>
      <point x="363" y="77" type="line"/>
      <point x="348" y="0" type="line"/>
      <point x="392" y="0" type="line"/>
    </contour>
    <component base="ka-cy"/>
  </outline>
</glyph>
<glyph name="Kabashkir-cy" format="2">
  <advance width="728"/>
  <unicode hex="04A0"/>
  <guideline x="95" y="672" angle="78.1113"/>
  <outline>
    <contour>
      <point x="86" y="630" type="line"/>
      <point x="263" y="630" type="line"/>
      <point x="280" y="710" type="line"/>
      <point x="103" y="710" type="line"/>
    </contour>
    <component base="Ka-cy" xOffset="91"/>
  </outline>
</glyph>
<glyph name="enghe-cy" format="2">
  <advance width="765"/>
  <unicode hex="04A5"/>
  <outline>
    <contour>
      <point x="555" y="444" type="line"/>
      <point x="788" y="444" type="line"/>
      <point x="805" y="522" type="line"/>
      <point x="487" y="522" type="line"/>
    </contour>
    <component base="en-cy"/>
  </outline>
</glyph>
<glyph name="Pemiddlehook-cy" format="2">
  <advance width="1097"/>
  <unicode hex="04A6"/>
  <outline>
    <contour>
      <point x="20" y="0" type="line"/>
      <point x="110" y="0" type="line"/>
      <point x="243" y="630" type="line"/>
      <point x="591" y="630" type="line"/>
      <point x="457" y="0" type="line"/>
      <point x="547" y="0" type="line"/>
      <point x="697" y="710" type="line"/>
      <point x="170" y="710" type="line"/>
    </contour>
    <contour>
      <point x="740" y="-124" type="curve" smooth="yes"/>
      <point x="878" y="-124"/>
      <point x="978" y="-39"/>
      <point x="1004" y="130" type="curve" smooth="yes"/>
      <point x="1029" y="294"/>
      <point x="962" y="391"/>
      <point x="807" y="391" type="curve" smooth="yes"/>
      <point x="744" y="391"/>
      <point x="675" y="375"/>
      <point x="611" y="343" type="curve"/>
      <point x="599" y="263" type="line"/>
      <point x="664" y="297"/>
      <point x="721" y="315"/>
      <point x="781" y="315" type="curve" smooth="yes"/>
      <point x="892" y="315"/>
      <point x="935" y="249"/>
      <point x="916" y="130" type="curve" smooth="yes"/>
      <point x="897" y="8"/>
      <point x="831" y="-48"/>
      <point x="745" y="-48" type="curve" smooth="yes"/>
      <point x="723" y="-48"/>
      <point x="702" y="-43"/>
      <point x="682" y="-37" type="curve"/>
      <point x="649" y="-111" type="line"/>
      <point x="680" y="-120"/>
      <point x="710" y="-124"/>
    </contour>
  </outline>
</glyph>
<glyph name="pemiddlehook-cy" format="2">
  <advance width="875"/>
  <unicode hex="04A7"/>
  <outline>
    <contour>
      <point x="556" y="-190" type="curve" smooth="yes"/>
      <point x="686" y="-190"/>
      <point x="778" y="-83"/>
      <point x="803" y="77" type="curve" smooth="yes"/>
      <point x="830" y="249"/>
      <point x="763" y="329"/>
      <point x="649" y="329" type="curve" smooth="yes"/>
      <point x="598" y="329"/>
      <point x="556" y="319"/>
      <point x="506" y="289" type="curve"/>
      <point x="556" y="522" type="line"/>
      <point x="123" y="522" type="line"/>
      <point x="13" y="0" type="line"/>
      <point x="101" y="0" type="line"/>
      <point x="197" y="453" type="line"/>
      <point x="453" y="453" type="line"/>
      <point x="357" y="0" type="line"/>
      <point x="445" y="0" type="line"/>
      <point x="490" y="214" type="line"/>
      <point x="533" y="242"/>
      <point x="579" y="252"/>
      <point x="615" y="252" type="curve" smooth="yes"/>
      <point x="690" y="252"/>
      <point x="735" y="203"/>
      <point x="715" y="78" type="curve" smooth="yes"/>
      <point x="696" y="-39"/>
      <point x="649" y="-113"/>
      <point x="557" y="-113" type="curve" smooth="yes"/>
      <point x="536" y="-113"/>
      <point x="513" y="-108"/>
      <point x="498" y="-95" type="curve"/>
      <point x="449" y="-154" type="line"/>
      <point x="475" y="-179"/>
      <point x="513" y="-190"/>
    </contour>
  </outline>
</glyph>
<glyph name="Haabkhasian-cy" format="2">
  <advance width="1150"/>
  <unicode hex="04A8"/>
  <outline>
    <contour>
      <point x="1065" y="85" type="curve"/>
      <point x="1037" y="133" type="line"/>
      <point x="983" y="98"/>
      <point x="920" y="60"/>
      <point x="818" y="60" type="curve" smooth="yes"/>
      <point x="798" y="60"/>
      <point x="777" y="64"/>
      <point x="734" y="67" type="curve"/>
      <point x="935" y="109"/>
      <point x="1020" y="248"/>
      <point x="1042" y="387" type="curve" smooth="yes"/>
      <point x="1071" y="574"/>
      <point x="967" y="710"/>
      <point x="765" y="710" type="curve" smooth="yes"/>
      <point x="567" y="710"/>
      <point x="435" y="581"/>
      <point x="407" y="402" type="curve" smooth="yes"/>
      <point x="385" y="266"/>
      <point x="432" y="141"/>
      <point x="514" y="81" type="curve"/>
      <point x="484" y="71"/>
      <point x="458" y="67"/>
      <point x="426" y="67" type="curve" smooth="yes"/>
      <point x="236" y="67"/>
      <point x="132" y="214"/>
      <point x="163" y="407" type="curve" smooth="yes"/>
      <point x="189" y="573"/>
      <point x="294" y="647"/>
      <point x="423" y="635" type="curve"/>
      <point x="451" y="714" type="line"/>
      <point x="248" y="747"/>
      <point x="101" y="592"/>
      <point x="71" y="403" type="curve" smooth="yes"/>
      <point x="34" y="170"/>
      <point x="183" y="-9"/>
      <point x="405" y="-9" type="curve" smooth="yes"/>
      <point x="465" y="-9"/>
      <point x="536" y="4"/>
      <point x="610" y="31" type="curve"/>
      <point x="661" y="7"/>
      <point x="732" y="-5"/>
      <point x="797" y="-5" type="curve" smooth="yes"/>
      <point x="906" y="-5"/>
      <point x="987" y="28"/>
    </contour>
    <contour>
      <point x="758" y="633" type="curve" smooth="yes"/>
      <point x="881" y="633"/>
      <point x="983" y="560"/>
      <point x="958" y="402" type="curve" smooth="yes"/>
      <point x="929" y="220"/>
      <point x="773" y="117"/>
      <point x="627" y="92" type="curve"/>
      <point x="532" y="139"/>
      <point x="471" y="232"/>
      <point x="494" y="381" type="curve" smooth="yes"/>
      <point x="520" y="548"/>
      <point x="626" y="633"/>
    </contour>
  </outline>
</glyph>
<glyph name="esdescender-cy" format="2">
  <advance width="531"/>
  <unicode hex="04AB"/>
  <outline>
    <contour>
      <point x="169" y="-123" type="line"/>
      <point x="249" y="-123" type="line"/>
      <point x="283" y="36" type="line"/>
      <point x="203" y="35" type="line"/>
    </contour>
    <component base="es-cy"/>
  </outline>
</glyph>
<glyph name="Hadescender-cy" format="2">
  <advance width="692"/>
  <unicode hex="04B2"/>
  <outline>
    <contour>
      <point x="488" y="-135" type="line"/>
      <point x="566" y="-135" type="line"/>
      <point x="612" y="80" type="line"/>
      <point x="477" y="80" type="line"/>
      <point x="459" y="0" type="line"/>
      <point x="517" y="0" type="line"/>
    </contour>
    <component base="Ha-cy" xOffset="23"/>
  </outline>
</glyph>
<glyph name="hadescender-cy" format="2">
  <advance width="539"/>
  <unicode hex="04B3"/>
  <outline>
    <contour>
      <point x="345" y="-123" type="line"/>
      <point x="425" y="-123" type="line"/>
      <point x="468" y="77" type="line"/>
      <point x="343" y="77" type="line"/>
      <point x="328" y="0" type="line"/>
      <point x="372" y="0" type="line"/>
    </contour>
    <component base="ha-cy" xOffset="5"/>
  </outline>
</glyph>
<glyph name="cheverticalstroke-cy" format="2">
  <advance width="537"/>
  <unicode hex="04B9"/>
  <outline>
    <contour>
      <point x="324" y="0" type="line"/>
      <point x="413" y="0" type="line"/>
      <point x="524" y="522" type="line"/>
      <point x="435" y="522" type="line"/>
      <point x="382" y="275" type="line"/>
      <point x="349" y="259"/>
      <point x="295" y="248"/>
      <point x="248" y="248" type="curve" smooth="yes"/>
      <point x="176" y="248"/>
      <point x="145" y="284"/>
      <point x="162" y="370" type="curve" smooth="yes"/>
      <point x="197" y="522" type="line"/>
      <point x="108" y="522" type="line"/>
      <point x="71" y="358" type="line" smooth="yes"/>
      <point x="46" y="239"/>
      <point x="100" y="180"/>
      <point x="212" y="180" type="curve" smooth="yes"/>
      <point x="270" y="180"/>
      <point x="318" y="189"/>
      <point x="368" y="209" type="curve"/>
    </contour>
    <component base="verticalbar-cy" xOffset="179" yOffset="2"/>
  </outline>
</glyph>
<glyph name="cheabkhasian-cy" format="2">
  <advance width="642"/>
  <unicode hex="04BD"/>
  <guideline x="235" y="294" angle="357.6373"/>
  <guideline x="235" y="229" angle="357.6373"/>
  <guideline x="235" y="229" angle="357.6373"/>
  <outline>
    <contour>
      <point x="76" y="428" type="line"/>
      <point x="49" y="401"/>
      <point x="27" y="373"/>
      <point x="27" y="329" type="curve" smooth="yes"/>
      <point x="27" y="279"/>
      <point x="80" y="236"/>
      <point x="172" y="232" type="curve" smooth="yes"/>
      <point x="229" y="229" type="line"/>
      <point x="239" y="294" type="line"/>
      <point x="157" y="297" type="line" smooth="yes"/>
      <point x="109" y="299"/>
      <point x="89" y="320"/>
      <point x="89" y="342" type="curve" smooth="yes"/>
      <point x="89" y="366"/>
      <point x="100" y="385"/>
      <point x="120" y="405" type="curve"/>
    </contour>
    <contour>
      <point x="340" y="-10" type="curve" smooth="yes"/>
      <point x="506" y="-10"/>
      <point x="572" y="108"/>
      <point x="572" y="108" type="curve"/>
      <point x="496" y="133" type="line"/>
      <point x="496" y="133"/>
      <point x="451" y="62"/>
      <point x="353" y="62" type="curve" smooth="yes"/>
      <point x="246" y="62"/>
      <point x="196" y="145"/>
      <point x="213" y="262" type="curve" smooth="yes"/>
      <point x="229" y="375"/>
      <point x="315" y="459"/>
      <point x="413" y="459" type="curve" smooth="yes"/>
      <point x="469" y="459"/>
      <point x="512" y="434"/>
      <point x="514" y="388" type="curve" smooth="yes"/>
      <point x="517" y="330"/>
      <point x="472" y="292"/>
      <point x="325" y="292" type="curve" smooth="yes"/>
      <point x="278" y="292"/>
      <point x="233" y="294"/>
      <point x="177" y="298" type="curve"/>
      <point x="160" y="233" type="line"/>
      <point x="224" y="228"/>
      <point x="277" y="226"/>
      <point x="327" y="226" type="curve" smooth="yes"/>
      <point x="521" y="226"/>
      <point x="606" y="285"/>
      <point x="606" y="390" type="curve" smooth="yes"/>
      <point x="606" y="484"/>
      <point x="521" y="531"/>
      <point x="426" y="531" type="curve" smooth="yes"/>
      <point x="268" y="531"/>
      <point x="148" y="409"/>
      <point x="128" y="262" type="curve" smooth="yes"/>
      <point x="108" y="115"/>
      <point x="182" y="-10"/>
    </contour>
  </outline>
</glyph>
<glyph name="Chedescenderabkhasian-cy" format="2">
  <advance width="869"/>
  <unicode hex="04BE"/>
  <outline>
    <contour>
      <point x="405" y="-135" type="line"/>
      <point x="483" y="-135" type="line"/>
      <point x="523" y="61" type="line"/>
      <point x="445" y="61" type="line"/>
    </contour>
    <component base="Cheabkhasian-cy" xOffset="1"/>
  </outline>
</glyph>
<glyph name="Kahook-cy" format="2">
  <advance width="646"/>
  <unicode hex="04C3"/>
  <outline>
    <contour>
      <point x="328" y="-220" type="curve" smooth="yes"/>
      <point x="437" y="-220"/>
      <point x="537" y="-125"/>
      <point x="563" y="35" type="curve" smooth="yes"/>
      <point x="587" y="182"/>
      <point x="529" y="313"/>
      <point x="418" y="370" type="curve"/>
      <point x="707" y="710" type="line"/>
      <point x="599" y="710" type="line"/>
      <point x="335" y="397" type="line"/>
      <point x="319" y="400"/>
      <point x="302" y="401"/>
      <point x="285" y="401" type="curve" smooth="yes"/>
      <point x="204" y="401" type="line"/>
      <point x="269" y="710" type="line"/>
      <point x="179" y="710" type="line"/>
      <point x="28" y="0" type="line"/>
      <point x="118" y="0" type="line"/>
      <point x="187" y="323" type="line"/>
      <point x="285" y="323" type="line" smooth="yes"/>
      <point x="418" y="323"/>
      <point x="497" y="194"/>
      <point x="472" y="35" type="curve" smooth="yes"/>
      <point x="454" y="-80"/>
      <point x="400" y="-138"/>
      <point x="335" y="-138" type="curve" smooth="yes"/>
      <point x="317" y="-138"/>
      <point x="298" y="-134"/>
      <point x="277" y="-126" type="curve"/>
      <point x="242" y="-203" type="line"/>
      <point x="271" y="-215"/>
      <point x="300" y="-220"/>
    </contour>
  </outline>
</glyph>
<glyph name="chekhakassian-cy" format="2">
  <advance width="556"/>
  <unicode hex="04CC"/>
  <outline>
    <contour>
      <point x="222" y="-134" type="line"/>
      <point x="302" y="-134" type="line"/>
      <point x="330" y="0" type="line"/>
      <point x="409" y="0" type="line"/>
      <point x="420" y="52" type="line"/>
      <point x="260" y="52" type="line"/>
    </contour>
    <component base="che-cy" xOffset="5"/>
  </outline>
</glyph>
<glyph name="dzeabkhasian-cy" format="2">
  <advance width="484"/>
  <unicode hex="04E1"/>
  <guideline x="209" y="458" angle="180"/>
  <outline>
    <contour>
      <point x="144" y="-220" type="curve" smooth="yes"/>
      <point x="284" y="-220"/>
      <point x="399" y="-130"/>
      <point x="422" y="12" type="curve" smooth="yes"/>
      <point x="441" y="130"/>
      <point x="380" y="220"/>
      <point x="233" y="229" type="curve"/>
      <point x="223" y="229" type="line"/>
      <point x="445" y="444" type="line"/>
      <point x="458" y="522" type="line"/>
      <point x="61" y="522" type="line"/>
      <point x="48" y="444" type="line"/>
      <point x="350" y="444" type="line"/>
      <point x="128" y="230" type="line"/>
      <point x="118" y="168" type="line"/>
      <point x="177" y="168" type="line" smooth="yes"/>
      <point x="301" y="168"/>
      <point x="361" y="105"/>
      <point x="347" y="20" type="curve" smooth="yes"/>
      <point x="333" y="-75"/>
      <point x="254" y="-145"/>
      <point x="149" y="-145" type="curve" smooth="yes"/>
      <point x="81" y="-145"/>
      <point x="30" y="-119"/>
      <point x="7" y="-61" type="curve"/>
      <point x="-69" y="-93" type="line"/>
      <point x="-42" y="-173"/>
      <point x="41" y="-220"/>
    </contour>
  </outline>
</glyph>
<glyph name="Obarred-cy" format="2">
  <advance width="742"/>
  <unicode hex="04E8"/>
  <outline>
    <contour>
      <point x="103" y="333" type="line"/>
      <point x="677" y="333" type="line"/>
      <point x="679" y="393" type="line"/>
      <point x="106" y="393" type="line"/>
    </contour>
    <component base="O-cy"/>
  </outline>
</glyph>
<glyph name="gestrokehook-cy" format="2">
  <advance width="434"/>
  <unicode hex="04FB"/>
  <outline>
    <contour>
      <point x="13" y="-207" type="curve" smooth="yes"/>
      <point x="120" y="-207"/>
      <point x="189" y="-131"/>
      <point x="218" y="0" type="curve" smooth="yes"/>
      <point x="235" y="77" type="line"/>
      <point x="86" y="77" type="line"/>
      <point x="69" y="0" type="line"/>
      <point x="137" y="0" type="line"/>
      <point x="125" y="-79"/>
      <point x="78" y="-130"/>
      <point x="17" y="-130" type="curve" smooth="yes"/>
      <point x="0" y="-130"/>
      <point x="-22" y="-126"/>
      <point x="-44" y="-119" type="curve"/>
      <point x="-76" y="-190" type="line"/>
      <point x="-45" y="-202"/>
      <point x="-15" y="-207"/>
    </contour>
    <component base="ghestroke-cy" xOffset="-3"/>
  </outline>
</glyph>
<glyph name="Hastroke-cy" format="2">
  <advance width="639"/>
  <unicode hex="04FE"/>
  <outline>
    <contour>
      <point x="153" y="321" type="line"/>
      <point x="516" y="321" type="line"/>
      <point x="528" y="377" type="line"/>
      <point x="165" y="377" type="line"/>
    </contour>
    <contour>
      <point x="290" y="350" type="line"/>
      <point x="-29" y="0" type="line"/>
      <point x="71" y="0" type="line"/>
      <point x="325" y="286" type="line"/>
      <point x="458" y="0" type="line"/>
      <point x="557" y="0" type="line"/>
      <point x="387" y="350" type="line"/>
      <point x="716" y="710" type="line"/>
      <point x="617" y="710" type="line"/>
      <point x="353" y="414" type="line"/>
      <point x="214" y="710" type="line"/>
      <point x="114" y="710" type="line"/>
    </contour>
  </outline>
</glyph>
<glyph name="hastroke-cy" format="2">
  <advance width="486"/>
  <unicode hex="04FF"/>
  <outline>
    <contour>
      <point x="99" y="233" type="line"/>
      <point x="412" y="233" type="line"/>
      <point x="424" y="289" type="line"/>
      <point x="111" y="289" type="line"/>
    </contour>
    <contour>
      <point x="194" y="260" type="line"/>
      <point x="-47" y="0" type="line"/>
      <point x="46" y="0" type="line"/>
      <point x="219" y="191" type="line"/>
      <point x="230" y="206" type="line"/>
      <point x="236" y="191" type="line"/>
      <point x="328" y="0" type="line"/>
      <point x="421" y="0" type="line"/>
      <point x="291" y="260" type="line"/>
      <point x="531" y="522" type="line"/>
      <point x="438" y="522" type="line"/>
      <point x="265" y="330" type="line"/>
      <point x="253" y="314" type="line"/>
      <point x="249" y="330" type="line"/>
      <point x="157" y="522" type="line"/>
      <point x="65" y="522" type="line"/>
    </contour>
  </outline>
</glyph>
<glyph name="Reversedze-cy" format="2">
  <advance width="548"/>
  <unicode hex="0510"/>
  <outline>
    <contour>
      <point x="245" y="-8" type="curve" smooth="yes"/>
      <point x="348" y="-8"/>
      <point x="441" y="37"/>
      <point x="499" y="115" type="curve"/>
      <point x="437" y="157" type="line"/>
      <point x="395" y="101"/>
      <point x="332" y="68"/>
      <point x="259" y="68" type="curve" smooth="yes"/>
      <point x="162" y="68"/>
      <point x="113" y="120"/>
      <point x="125" y="200" type="curve" smooth="yes"/>
      <point x="137" y="276"/>
      <point x="198" y="330"/>
      <point x="290" y="330" type="curve" smooth="yes"/>
      <point x="363" y="330" type="line"/>
      <point x="374" y="401" type="line"/>
      <point x="300" y="401" type="line" smooth="yes"/>
      <point x="229" y="401"/>
      <point x="190" y="451"/>
      <point x="201" y="518" type="curve" smooth="yes"/>
      <point x="212" y="587"/>
      <point x="270" y="636"/>
      <point x="352" y="636" type="curve" smooth="yes"/>
      <point x="422" y="636"/>
      <point x="469" y="604"/>
      <point x="490" y="552" type="curve"/>
      <point x="563" y="597" type="line"/>
      <point x="530" y="671"/>
      <point x="464" y="718"/>
      <point x="360" y="718" type="curve" smooth="yes"/>
      <point x="231" y="718"/>
      <point x="134" y="645"/>
      <point x="116" y="530" type="curve" smooth="yes"/>
      <point x="105" y="461"/>
      <point x="130" y="398"/>
      <point x="191" y="369" type="curve"/>
      <point x="106" y="346"/>
      <point x="47" y="277"/>
      <point x="33" y="192" type="curve" smooth="yes"/>
      <point x="13" y="66"/>
      <point x="104" y="-8"/>
    </contour>
  </outline>
</glyph>
<glyph name="endash" format="2">
  <advance width="560"/>
  <unicode hex="2013"/>
  <outline>
    <contour>
      <point x="48" y="233" type="line"/>
      <point x="483" y="233" type="line"/>
      <point x="500" y="313" type="line"/>
      <point x="65" y="313" type="line"/>
    </contour>
  </outline>
</glyph>
<glyph name="bullet" format="2">
  <advance width="345"/>
  <unicode hex="2022"/>
  <outline>
    <contour>
      <point x="273" y="304"/>
      <point x="273" y="363" type="curve" smooth="yes"/>
      <point x="273" y="406"/>
      <point x="244" y="441"/>
      <point x="200" y="441" type="curve" smooth="yes"/>
      <point x="145" y="441"/>
      <point x="88" y="389"/>
      <point x="88" y="331" type="curve" smooth="yes"/>
      <point x="88" y="287"/>
      <point x="118" y="253"/>
      <point x="160" y="253" type="curve" smooth="yes"/>
      <point x="217" y="253"/>
    </contour>
  </outline>
</glyph>
<glyph name="perthousand" format="2">
  <advance width="1053"/>
  <unicode hex="2030"/>
  <outline>
    <contour>
      <point x="146" y="428"/>
      <point x="220" y="428" type="curve" smooth="yes"/>
      <point x="310" y="428"/>
      <point x="400" y="507"/>
      <point x="400" y="599" type="curve" smooth="yes"/>
      <point x="400" y="667"/>
      <point x="352" y="720"/>
      <point x="279" y="720" type="curve" smooth="yes"/>
      <point x="189" y="720"/>
      <point x="98" y="641"/>
      <point x="98" y="548" type="curve" smooth="yes"/>
      <point x="98" y="481"/>
    </contour>
    <contour>
      <point x="281" y="476"/>
      <point x="230" y="476" type="curve" smooth="yes"/>
      <point x="190" y="476"/>
      <point x="163" y="511"/>
      <point x="163" y="554" type="curve" smooth="yes"/>
      <point x="163" y="615"/>
      <point x="217" y="672"/>
      <point x="268" y="672" type="curve" smooth="yes"/>
      <point x="308" y="672"/>
      <point x="335" y="637"/>
      <point x="335" y="594" type="curve" smooth="yes"/>
      <point x="335" y="533"/>
    </contour>
    <contour>
      <point x="390" y="-10"/>
      <point x="464" y="-10" type="curve" smooth="yes"/>
      <point x="554" y="-10"/>
      <point x="643" y="69"/>
      <point x="643" y="162" type="curve" smooth="yes"/>
      <point x="643" y="229"/>
      <point x="596" y="282"/>
      <point x="522" y="282" type="curve" smooth="yes"/>
      <point x="432" y="282"/>
      <point x="342" y="203"/>
      <point x="342" y="111" type="curve" smooth="yes"/>
      <point x="342" y="43"/>
    </contour>
    <contour>
      <point x="525" y="38"/>
      <point x="473" y="38" type="curve" smooth="yes"/>
      <point x="433" y="38"/>
      <point x="406" y="73"/>
      <point x="406" y="116" type="curve" smooth="yes"/>
      <point x="406" y="177"/>
      <point x="460" y="234"/>
      <point x="512" y="234" type="curve" smooth="yes"/>
      <point x="552" y="234"/>
      <point x="579" y="199"/>
      <point x="579" y="156" type="curve" smooth="yes"/>
      <point x="579" y="95"/>
    </contour>
    <contour>
      <point x="735" y="-10"/>
      <point x="809" y="-10" type="curve" smooth="yes"/>
      <point x="899" y="-10"/>
      <point x="988" y="69"/>
      <point x="988" y="162" type="curve" smooth="yes"/>
      <point x="988" y="229"/>
      <point x="941" y="282"/>
      <point x="868" y="282" type="curve" smooth="yes"/>
      <point x="778" y="282"/>
      <point x="687" y="203"/>
      <point x="687" y="110" type="curve" smooth="yes"/>
      <point x="687" y="43"/>
    </contour>
    <contour>
      <point x="870" y="38"/>
      <point x="818" y="38" type="curve" smooth="yes"/>
      <point x="778" y="38"/>
      <point x="751" y="73"/>
      <point x="751" y="116" type="curve" smooth="yes"/>
      <point x="751" y="177"/>
      <point x="805" y="234"/>
      <point x="857" y="234" type="curve" smooth="yes"/>
      <point x="897" y="234"/>
      <point x="924" y="199"/>
      <point x="924" y="156" type="curve" smooth="yes"/>
      <point x="924" y="95"/>
    </contour>
    <contour>
      <point x="21" y="33" type="line"/>
      <point x="55" y="-5" type="line"/>
      <point x="387" y="343" type="line"/>
      <point x="721" y="678" type="line"/>
      <point x="686" y="715" type="line"/>
      <point x="359" y="370" type="line"/>
    </contour>
  </outline>
</glyph>
<glyph name="sixsuperior" format="2">
  <advance width="399"/>
  <unicode hex="2076"/>
  <outline>
    <contour>
      <point x="416" y="618"/>
      <point x="416" y="545" type="curve" smooth="yes"/>
      <point x="416" y="466"/>
      <point x="332" y="395"/>
      <point x="229" y="395" type="curve" smooth="yes"/>
      <point x="148" y="395"/>
      <point x="91" y="446"/>
      <point x="91" y="532" type="curve" smooth="yes"/>
      <point x="91" y="688"/>
      <point x="183" y="809"/>
      <point x="317" y="809" type="curve" smooth="yes"/>
      <point x="374" y="809"/>
      <point x="420" y="784"/>
      <point x="436" y="740" type="curve"/>
      <point x="396" y="703" type="line"/>
      <point x="385" y="736"/>
      <point x="348" y="757"/>
      <point x="304" y="757" type="curve" smooth="yes"/>
      <point x="234" y="757"/>
      <point x="177" y="705"/>
      <point x="157" y="613" type="curve"/>
      <point x="183" y="649"/>
      <point x="237" y="671"/>
      <point x="284" y="671" type="curve" smooth="yes"/>
      <point x="364" y="671"/>
    </contour>
    <contour>
      <point x="188" y="441"/>
      <point x="238" y="441" type="curve" smooth="yes"/>
      <point x="303" y="441"/>
      <point x="366" y="489"/>
      <point x="366" y="542" type="curve" smooth="yes"/>
      <point x="366" y="585"/>
      <point x="329" y="619"/>
      <point x="275" y="619" type="curve" smooth="yes"/>
      <point x="208" y="619"/>
      <point x="145" y="572"/>
      <point x="145" y="519" type="curve" smooth="yes"/>
      <point x="145" y="476"/>
    </contour>
  </outline>
</glyph>
<glyph name="eightinferior" format="2">
  <advance width="391"/>
  <unicode hex="2088"/>
  <outline>
    <contour>
      <point x="300" y="-28"/>
      <point x="300" y="51" type="curve" smooth="yes"/>
      <point x="300" y="92"/>
      <point x="272" y="122"/>
      <point x="233" y="138" type="curve"/>
      <point x="282" y="154"/>
      <point x="324" y="187"/>
      <point x="324" y="235" type="curve" smooth="yes"/>
      <point x="324" y="291"/>
      <point x="263" y="326"/>
      <point x="200" y="326" type="curve" smooth="yes"/>
      <point x="125" y="326"/>
      <point x="33" y="279"/>
      <point x="33" y="208" type="curve" smooth="yes"/>
      <point x="33" y="174"/>
      <point x="57" y="150"/>
      <point x="87" y="138" type="curve"/>
      <point x="33" y="119"/>
      <point x="-22" y="82"/>
      <point x="-22" y="20" type="curve" smooth="yes"/>
      <point x="-22" y="-38"/>
      <point x="31" y="-85"/>
      <point x="112" y="-85" type="curve" smooth="yes"/>
      <point x="207" y="-85"/>
    </contour>
    <contour>
      <point x="244" y="89"/>
      <point x="244" y="50" type="curve" smooth="yes"/>
      <point x="244" y="-3"/>
      <point x="179" y="-38"/>
      <point x="122" y="-38" type="curve" smooth="yes"/>
      <point x="79" y="-38"/>
      <point x="35" y="-12"/>
      <point x="35" y="31" type="curve" smooth="yes"/>
      <point x="35" y="80"/>
      <point x="98" y="113"/>
      <point x="155" y="113" type="curve" smooth="yes"/>
      <point x="200" y="113"/>
    </contour>
    <contour>
      <point x="88" y="177"/>
      <point x="88" y="208" type="curve" smooth="yes"/>
      <point x="88" y="252"/>
      <point x="140" y="280"/>
      <point x="193" y="280" type="curve" smooth="yes"/>
      <point x="233" y="280"/>
      <point x="267" y="258"/>
      <point x="267" y="223" type="curve" smooth="yes"/>
      <point x="267" y="183"/>
      <point x="209" y="158"/>
      <point x="165" y="158" type="curve" smooth="yes"/>
      <point x="127" y="158"/>
    </contour>
  </outline>
</glyph>
<glyph name="naira" format="2">
  <advance width="817"/>
  <unicode hex="20A6"/>
  <outline>
    <contour>
      <point x="771" y="265" type="line"/>
      <point x="782" y="317" type="line"/>
      <point x="41" y="317" type="line"/>
      <point x="30" y="265" type="line"/>
    </contour>
    <contour>
      <point x="794" y="376" type="line"/>
      <point x="805" y="428" type="line"/>
      <point x="65" y="428" type="line"/>
      <point x="54" y="376" type="line"/>
    </contour>
    <contour>
      <point x="265" y="542" type="line"/>
      <point x="555" y="0" type="line"/>
      <point x="631" y="0" type="line"/>
      <point x="782" y="709" type="line"/>
      <point x="692" y="709" type="line"/>
      <point x="574" y="157" type="line"/>
      <point x="281" y="710" type="line"/>
      <point x="211" y="710" type="line"/>
      <point x="60" y="0" type="line"/>
      <point x="150" y="0" type="line"/>
    </contour>
  </outline>
</glyph>
<glyph name="minus" format="2">
  <advance width="551"/>
  <unicode hex="2212"/>
  <outline>
    <contour>
      <point x="74" y="269" type="line"/>
      <point x="477" y="269" type="line"/>
      <point x="477" y="341" type="line"/>
      <point x="74" y="341" type="line"/>
    </contour>
  </outline>
</glyph>
<glyph name="greaterequal" format="2">
  <advance width="481"/>
  <unicode hex="2265"/>
  <outline>
    <contour>
      <point x="70" y="123" type="line"/>
      <point x="70" y="51" type="line"/>
      <point x="402" y="51" type="line"/>
      <point x="402" y="123" type="line"/>
    </contour>
    <contour>
      <point x="73" y="272" type="line"/>
      <point x="73" y="184" type="line"/>
      <point x="403" y="344" type="line"/>
      <point x="403" y="390" type="line"/>
      <point x="73" y="553" type="line"/>
      <point x="73" y="469" type="line"/>
      <point x="275" y="369" type="line"/>
    </contour>
  </outline>
</glyph>
<glyph name="fl" format="2">
  <advance width="585"/>
  <unicode hex="FB02"/>
  <outline>
    <contour>
      <point x="359" y="-7"/>
      <point x="417" y="-7" type="curve" smooth="yes"/>
      <point x="466" y="-7"/>
      <point x="520" y="10"/>
      <point x="522" y="12" type="curve"/>
      <point x="526" y="84" type="line"/>
      <point x="525" y="84"/>
      <point x="488" y="72"/>
      <point x="465" y="72" type="curve" smooth="yes"/>
      <point x="437" y="72"/>
      <point x="426" y="94"/>
      <point x="426" y="117" type="curve" smooth="yes"/>
      <point x="426" y="122"/>
      <point x="427" y="128"/>
      <point x="428" y="133" type="curve" smooth="yes"/>
      <point x="521" y="572" type="line" smooth="yes"/>
      <point x="524" y="587"/>
      <point x="526" y="601"/>
      <point x="526" y="615" type="curve" smooth="yes"/>
      <point x="526" y="690"/>
      <point x="477" y="740"/>
      <point x="372" y="740" type="curve" smooth="yes"/>
      <point x="252" y="740"/>
      <point x="172" y="661"/>
      <point x="145" y="540" type="curve" smooth="yes"/>
      <point x="141" y="522" type="line"/>
      <point x="74" y="522" type="line"/>
      <point x="59" y="453" type="line"/>
      <point x="126" y="453" type="line"/>
      <point x="30" y="0" type="line"/>
      <point x="118" y="0" type="line"/>
      <point x="214" y="453" type="line"/>
      <point x="311" y="453" type="line"/>
      <point x="325" y="522" type="line"/>
      <point x="229" y="522" type="line"/>
      <point x="231" y="531" type="line" smooth="yes"/>
      <point x="248" y="609"/>
      <point x="289" y="664"/>
      <point x="357" y="664" type="curve" smooth="yes"/>
      <point x="415" y="664"/>
      <point x="433" y="627"/>
      <point x="433" y="587" type="curve" smooth="yes"/>
      <point x="433" y="576"/>
      <point x="431" y="564"/>
      <point x="429" y="553" type="curve" smooth="yes"/>
      <point x="335" y="114" type="line" smooth="yes"/>
      <point x="331" y="94"/>
      <point x="329" y="83"/>
      <point x="329" y="72" type="curve" smooth="yes"/>
      <point x="329" y="27"/>
    </contour>
  </outline>
</glyph>
<glyph name="Esdescender-cy.loclBSH" format="2">
  <advance width="711"/>
  <outline>
    <contour>
      <point x="263" y="-135" type="line"/>
      <point x="341" y="-135" type="line"/>
      <point x="377" y="45" type="line"/>
      <point x="300" y="45" type="line"/>
    </contour>
    <component base="Es-cy"/>
  </outline>
</glyph>
<glyph name="brevebelowcomb" format="2">
  <anchor x="81" y="0" name="_bottom"/>
  <anchor x="41" y="-166" name="bottom"/>
  <outline>
    <contour>
      <point x="41" y="-166" type="curve" smooth="yes"/>
      <point x="95" y="-166"/>
      <point x="148" y="-118"/>
      <point x="164" y="-55" type="curve"/>
      <point x="117" y="-55" type="line"/>
      <point x="104" y="-94"/>
      <point x="76" y="-123"/>
      <point x="52" y="-123" type="curve" smooth="yes"/>
      <point x="27" y="-123"/>
      <point x="12" y="-91"/>
      <point x="21" y="-55" type="curve"/>
      <point x="-27" y="-55" type="line"/>
      <point x="-43" y="-118"/>
      <point x="-13" y="-166"/>
    </contour>
  </outline>
</glyph>
<glyph name="brevecomb-cy.case" format="2">
  <anchor x="330" y="710" name="_top"/>
  <outline>
    <contour>
      <point x="340" y="801" type="curve" smooth="yes"/>
      <point x="445" y="801"/>
      <point x="512" y="849"/>
      <point x="522" y="916" type="curve"/>
      <point x="453" y="916" type="line"/>
      <point x="447" y="880"/>
      <point x="408" y="857"/>
      <point x="343" y="857" type="curve" smooth="yes"/>
      <point x="289" y="857"/>
      <point x="259" y="883"/>
      <point x="265" y="916" type="curve"/>
      <point x="194" y="916" type="line"/>
      <point x="184" y="849"/>
      <point x="236" y="801"/>
    </contour>
  </outline>
</glyph>
<glyph name="descender-cy" format="2">
  <advance width="226"/>
  <anchor x="-55" y="0" name="_bottomright"/>
  <outline>
    <contour>
      <point x="12" y="-123" type="line"/>
      <point x="92" y="-123" type="line"/>
      <point x="135" y="77" type="line"/>
      <point x="-39" y="77" type="line"/>
      <point x="-55" y="0" type="line"/>
      <point x="38" y="0" type="line"/>
    </contour>
  </outline>
</glyph>
<glyph name="dieresisbelowcomb" format="2">
  <anchor x="121" y="0" name="_bottom"/>
  <anchor x="75" y="-187" name="bottom"/>
  <outline>
    <contour>
      <point x="-29" y="-187" type="line"/>
      <point x="41" y="-187" type="line"/>
      <point x="67" y="-85" type="line"/>
      <point x="-3" y="-85" type="line"/>
    </contour>
    <contour>
      <point x="109" y="-187" type="line"/>
      <point x="179" y="-187" type="line"/>
      <point x="205" y="-85" type="line"/>
      <point x="135" y="-85" type="line"/>
    </contour>
  </outline>
</glyph>
<glyph name="four.lf" format="2">
  <advance width="554"/>
  <outline>
    <contour>
      <point x="278" y="0" type="line"/>
      <point x="366" y="0" type="line"/>
      <point x="404" y="181" type="line"/>
      <point x="488" y="181" type="line"/>
      <point x="505" y="261" type="line"/>
      <point x="421" y="261" type="line"/>
      <point x="516" y="710" type="line"/>
      <point x="455" y="710" type="line"/>
      <point x="19" y="260" type="line"/>
      <point x="2" y="181" type="line"/>
      <point x="316" y="181" type="line"/>
    </contour>
    <contour>
      <point x="342" y="261" type="line"/>
      <point x="111" y="261" type="line"/>
      <point x="409" y="575" type="line"/>
    </contour>
  </outline>
</glyph>
<glyph name="fourthtonechinese" format="2">
  <advance width="203"/>
  <outline>
    <contour>
      <point x="127" y="501" type="line"/>
      <point x="174" y="501" type="line"/>
      <point x="233" y="718" type="line"/>
      <point x="164" y="718" type="line"/>
    </contour>
  </outline>
</glyph>
<glyph name="hook-cy" format="2">
  <advance width="310"/>
  <anchor x="184" y="0" name="_bottomright"/>
  <outline>
    <contour>
      <point x="68" y="-207" type="curve" smooth="yes"/>
      <point x="162" y="-207"/>
      <point x="242" y="-140"/>
      <point x="271" y="0" type="curve" smooth="yes"/>
      <point x="287" y="77" type="line"/>
      <point x="199" y="77" type="line"/>
      <point x="188" y="24" type="line" smooth="yes"/>
      <point x="168" y="-73"/>
      <point x="130" y="-123"/>
      <point x="70" y="-123" type="curve" smooth="yes"/>
      <point x="59" y="-123"/>
      <point x="47" y="-121"/>
      <point x="35" y="-118" type="curve"/>
      <point x="-1" y="-194" type="line"/>
      <point x="22" y="-203"/>
      <point x="46" y="-207"/>
    </contour>
  </outline>
</glyph>
<glyph name="n.sc" format="2">
  <advance width="644"/>
  <anchor x="335" y="0" name="bottom"/>
  <anchor x="334" y="707" name="top"/>
  <outline>
    <contour>
      <point x="131" y="551" type="line"/>
      <point x="14" y="0" type="line"/>
      <point x="94" y="0" type="line"/>
      <point x="179" y="402" type="line"/>
      <point x="436" y="0" type="line"/>
      <point x="503" y="0" type="line"/>
      <point x="620" y="551" type="line"/>
      <point x="540" y="551" type="line"/>
      <point x="453" y="141" type="line"/>
      <point x="193" y="551" type="line"/>
    </contour>
  </outline>
</glyph>
<glyph name="p.sc" format="2">
  <advance width="527"/>
  <outline>
    <contour>
      <point x="131" y="551" type="line"/>
      <point x="14" y="0" type="line"/>
      <point x="94" y="0" type="line"/>
      <point x="135" y="194" type="line"/>
      <point x="301" y="194" type="line" smooth="yes"/>
      <point x="418" y="194"/>
      <point x="514" y="300"/>
      <point x="514" y="401" type="curve" smooth="yes"/>
      <point x="514" y="477"/>
      <point x="461" y="551"/>
      <point x="372" y="551" type="curve" smooth="yes"/>
    </contour>
    <contour>
      <point x="311" y="265" type="curve" smooth="yes"/>
      <point x="150" y="265" type="line"/>
      <point x="196" y="480" type="line"/>
      <point x="352" y="480" type="line" smooth="yes"/>
      <point x="399" y="480"/>
      <point x="432" y="444"/>
      <point x="432" y="393" type="curve" smooth="yes"/>
      <point x="432" y="325"/>
      <point x="378" y="265"/>
    </contour>
  </outline>
</glyph>
<glyph name="ringhalfleft" format="2">
  <advance width="133"/>
  <outline>
    <contour>
      <point x="160" y="579" type="curve"/>
      <point x="171" y="618" type="line"/>
      <point x="160" y="618"/>
      <point x="154" y="631"/>
      <point x="154" y="650" type="curve" smooth="yes"/>
      <point x="154" y="688"/>
      <point x="175" y="713"/>
      <point x="195" y="713" type="curve"/>
      <point x="207" y="753" type="line"/>
      <point x="158" y="753"/>
      <point x="115" y="706"/>
      <point x="115" y="641" type="curve" smooth="yes"/>
      <point x="115" y="604"/>
      <point x="132" y="579"/>
    </contour>
  </outline>
</glyph>
<glyph name="t.sc" format="2">
  <advance width="515"/>
  <anchor x="236" y="0" name="bottom"/>
  <anchor x="236" y="707" name="top"/>
  <outline>
    <contour>
      <point x="256" y="480" type="line"/>
      <point x="154" y="0" type="line"/>
      <point x="234" y="0" type="line"/>
      <point x="336" y="480" type="line"/>
      <point x="531" y="480" type="line"/>
      <point x="546" y="551" type="line"/>
      <point x="74" y="551" type="line"/>
      <point x="59" y="480" type="line"/>
    </contour>
  </outline>
</glyph>
<glyph name="u.ss08" format="2">
  <advance width="571"/>
  <outline>
    <contour>
      <point x="66" y="-10"/>
      <point x="161" y="-10" type="curve" smooth="yes"/>
      <point x="238" y="-10"/>
      <point x="323" y="33"/>
      <point x="376" y="107" type="curve"/>
      <point x="353" y="0" type="line"/>
      <point x="438" y="0" type="line"/>
      <point x="549" y="522" type="line"/>
      <point x="461" y="522" type="line"/>
      <point x="392" y="195" type="line"/>
      <point x="350" y="122"/>
      <point x="276" y="66"/>
      <point x="208" y="66" type="curve" smooth="yes"/>
      <point x="147" y="66"/>
      <point x="126" y="102"/>
      <point x="126" y="156" type="curve" smooth="yes"/>
      <point x="126" y="177"/>
      <point x="130" y="201"/>
      <point x="135" y="226" type="curve" smooth="yes"/>
      <point x="198" y="522" type="line"/>
      <point x="111" y="522" type="line"/>
      <point x="44" y="209" type="line" smooth="yes"/>
      <point x="37" y="178"/>
      <point x="33" y="149"/>
      <point x="33" y="122" type="curve" smooth="yes"/>
      <point x="33" y="44"/>
    </contour>
  </outline>
</glyph>
<glyph name="verticallinelowmod" format="2">
  <advance width="190"/>
  <outline>
    <contour>
      <point x="85" y="273" type="line"/>
      <point x="9" y="273" type="line"/>
      <point x="9" y="-130" type="line"/>
      <point x="85" y="-130" type="line"/>
    </contour>
  </outline>
</glyph>
<glyph name="ze-cy.loclBGR" format="2">
  <advance width="524"/>
  <outline>
    <contour>
      <point x="171" y="-220" type="curve" smooth="yes"/>
      <point x="303" y="-220"/>
      <point x="414" y="-136"/>
      <point x="433" y="0" type="curve" smooth="yes"/>
      <point x="452" y="133"/>
      <point x="377" y="203"/>
      <point x="257" y="209" type="curve"/>
      <point x="253" y="189" type="line"/>
      <point x="350" y="198"/>
      <point x="429" y="255"/>
      <point x="442" y="355" type="curve" smooth="yes"/>
      <point x="458" y="463"/>
      <point x="392" y="529"/>
      <point x="274" y="529" type="curve" smooth="yes"/>
      <point x="180" y="529"/>
      <point x="104" y="481"/>
      <point x="58" y="409" type="curve"/>
      <point x="121" y="375" type="line"/>
      <point x="159" y="434"/>
      <point x="208" y="457"/>
      <point x="261" y="457" type="curve" smooth="yes"/>
      <point x="330" y="457"/>
      <point x="371" y="416"/>
      <point x="361" y="347" type="curve" smooth="yes"/>
      <point x="351" y="277"/>
      <point x="288" y="230"/>
      <point x="215" y="230" type="curve" smooth="yes"/>
      <point x="159" y="230" type="line"/>
      <point x="145" y="162" type="line"/>
      <point x="221" y="162" type="line" smooth="yes"/>
      <point x="320" y="162"/>
      <point x="366" y="103"/>
      <point x="353" y="12" type="curve" smooth="yes"/>
      <point x="339" y="-83"/>
      <point x="279" y="-148"/>
      <point x="179" y="-148" type="curve" smooth="yes"/>
      <point x="116" y="-148"/>
      <point x="66" y="-119"/>
      <point x="47" y="-61" type="curve"/>
      <point x="-28" y="-93" type="line"/>
      <point x="-3" y="-173"/>
      <point x="73" y="-220"/>
    </contour>
  </outline>
</glyph>
<glyph name="zero.numr" format="2">
  <advance width="450"/>
  <outline>
    <contour>
      <point x="124" y="319"/>
      <point x="230" y="319" type="curve" smooth="yes"/>
      <point x="363" y="319"/>
      <point x="466" y="449"/>
      <point x="466" y="560" type="curve" smooth="yes"/>
      <point x="466" y="639"/>
      <point x="422" y="730"/>
      <point x="317" y="730" type="curve" smooth="yes"/>
      <point x="185" y="730"/>
      <point x="79" y="599"/>
      <point x="79" y="488" type="curve" smooth="yes"/>
      <point x="79" y="408"/>
    </contour>
    <contour>
      <point x="137" y="436"/>
      <point x="137" y="495" type="curve" smooth="yes"/>
      <point x="137" y="568"/>
      <point x="202" y="675"/>
      <point x="305" y="675" type="curve" smooth="yes"/>
      <point x="377" y="675"/>
      <point x="410" y="613"/>
      <point x="410" y="553" type="curve" smooth="yes"/>
      <point x="410" y="480"/>
      <point x="345" y="374"/>
      <point x="241" y="374" type="curve" smooth="yes"/>
      <point x="169" y="374"/>
    </contour>
  </outline>
</glyph>
